<?xml version="1.0" encoding="UTF-8" standalone="no"?><!DOCTYPE svg PUBLIC "-//W3C//DTD SVG 1.1//EN" "http://www.w3.org/Graphics/SVG/1.1/DTD/svg11.dtd"><svg width="100%" height="100%" viewBox="0 0 1692 1275" version="1.1" xmlns="http://www.w3.org/2000/svg" xmlns:xlink="http://www.w3.org/1999/xlink" xml:space="preserve" xmlns:serif="http://www.serif.com/" style="fill-rule:evenodd;clip-rule:evenodd;stroke-linejoin:round;stroke-miterlimit:2;"><ellipse cx="843.761" cy="1075.35" rx="566.962" ry="41.657" style="fill:#e6e6e6;fill-opacity:0.45;"/><path d="M872.689,185.867l-5.414,118.417c-15.775,29.604 -20.342,34.51 -25.967,35.567l0,35.441c13.914,3.383 26.263,4.229 33.537,-0c25.375,-15.225 42.884,-92.577 42.884,-92.577l-45.04,-96.848Z" style="fill:#68e1fd;fill-rule:nonzero;"/><path d="M1320.57,315.137l-933.501,2.281l1.657,678.314l933.501,-2.281l-1.657,-678.314Z" style="fill:#f2f2f2;"/><rect x="387.011" y="316.253" width="933.842" height="133.557" style="fill:#e6e6e6;"/><circle cx="470.791" cy="385.146" r="16.917" style="fill:#24285b;"/><circle cx="521.118" cy="385.019" r="16.917" style="fill:#68e1fd;"/><circle cx="568.527" cy="384.892" r="16.917" style="fill:#ffd200;"/><rect x="813.776" y="771.607" width="400.206" height="24.91" style="fill:#e6e6e6;"/><rect x="813.776" y="837.582" width="400.206" height="24.91" style="fill:#e6e6e6;"/><rect x="813.776" y="903.557" width="278.068" height="24.91" style="fill:#e6e6e6;"/><rect x="813.776" y="497.049" width="389.845" height="233.45" style="fill:#e6e6e6;"/><rect x="471.468" y="494.935" width="297.437" height="83.907" style="fill:#666;fill-opacity:0.17;"/><rect x="471.468" y="613.774" width="297.437" height="83.907" style="fill:#e6e6e6;"/><circle cx="523.275" cy="656.108" r="30.196" style="fill:#666;fill-opacity:0.17;"/><rect x="576.224" y="637.331" width="119.981" height="13.28" style="fill:#666;fill-opacity:0.17;"/><rect x="576.224" y="663.89" width="75.195" height="13.28" style="fill:#666;fill-opacity:0.17;"/><rect x="471.468" y="732.656" width="297.437" height="83.907" style="fill:#e6e6e6;"/><circle cx="523.275" cy="774.99" r="30.196" style="fill:#666;fill-opacity:0.17;"/><rect x="576.224" y="756.17" width="119.981" height="13.28" style="fill:#666;fill-opacity:0.17;"/><rect x="576.224" y="782.772" width="75.195" height="13.28" style="fill:#666;fill-opacity:0.17;"/><rect x="471.468" y="851.496" width="297.437" height="83.907" style="fill:#e6e6e6;"/><circle cx="523.275" cy="893.83" r="30.196" style="fill:#666;fill-opacity:0.17;"/><rect x="576.224" y="875.052" width="119.981" height="13.28" style="fill:#666;fill-opacity:0.17;"/><rect x="576.224" y="901.611" width="75.195" height="13.28" style="fill:#666;fill-opacity:0.17;"/><path d="M487.707,995.457c1.438,-0 -32.987,-186.972 -21.526,-212.685c11.461,-25.713 38.697,-50.75 38.063,-71.431c-0.635,-20.68 79.804,-81.75 97.27,-132.5l15.648,24.741l163.035,-137.702c-0,0 27.785,-3.975 36.836,-24.148c9.05,-20.173 93.76,-125.649 93.76,-125.649l-45.336,0l-51.173,66.821l-34.679,-14.675l-185.196,139.562l-10.615,41.023c0,0 -132.457,95.03 -176.187,145.23c-43.729,50.2 14.591,301.37 14.591,301.37l65.509,0.043Z" style="fill-opacity:0.08;fill-rule:nonzero;"/><path d="M772.868,336.964l-199.606,165.364l48.726,58.817l199.606,-165.364l-48.726,-58.817Z" style="fill:#24285b;"/><circle cx="632.176" cy="502.674" r="27.49" style="fill:#ffd200;"/><path d="M744.472,388.293l-84.09,69.663l7.717,9.315l84.089,-69.664l-7.716,-9.314Z" style="fill:#fff;fill-opacity:0.17;"/><path d="M728.502,432.925l-52.694,43.654l7.717,9.315l52.694,-43.655l-7.717,-9.314Z" style="fill:#fff;fill-opacity:0.17;"/><path d="M338.545,845.364l-27.617,88.178c-7.501,24.144 -24.761,44.088 -47.578,54.979l-40.6,19.285l1.65,12.011l60.646,-13.111c28.877,-8.495 52.857,-28.817 65.975,-55.909l42.841,-88.221l-55.317,-17.212Z" style="fill:#f4a28c;fill-rule:nonzero;"/><path d="M430.064,870.231l12.941,189.128l-12.053,4.187l-48.001,-176.906l47.113,-16.409Z" style="fill:#f4a28c;fill-rule:nonzero;"/><path d="M445.5,1062.62c0,-0 2.792,11.207 11.25,14.717c8.458,3.511 4.229,15.691 -8.458,8.247c-3.95,-2.288 -7.699,-4.905 -11.208,-7.824c-3.298,-2.593 -7.222,-4.271 -11.376,-4.863c-1.577,-0.411 -2.782,-1.699 -3.087,-3.299c-1.692,-6.175 12.349,-12.011 12.349,-12.011l10.53,5.033Z" style="fill:#68e1fd;fill-rule:nonzero;"/><path d="M224.4,1019.69c-0,-0 -8.459,6.513 -8.459,15.056c0,8.543 -11.841,9.6 -10.361,-4.23c0.448,-4.285 1.24,-8.528 2.368,-12.687c0.967,-3.812 0.894,-7.814 -0.211,-11.588c-0.324,-1.511 0.338,-3.072 1.649,-3.891c4.61,-3.806 15.014,5.921 15.014,5.921l-0,11.419Z" style="fill:#68e1fd;fill-rule:nonzero;"/><path d="M357.661,596.139l4.525,18.185l-14.76,7.782l-2.58,-31.127l12.815,5.16Z" style="fill:#f4a28c;fill-rule:nonzero;"/><path d="M341.378,573.47c1.921,-3.612 5.692,-5.877 9.783,-5.877c3.414,-0 6.643,1.577 8.741,4.27c5.456,6.852 11.842,17.551 3.257,22.415c-13.153,7.443 -23.303,-9.22 -23.303,-9.22c-0.657,-3.927 -0.127,-7.963 1.522,-11.588Z" style="fill:#f4a28c;fill-rule:nonzero;"/><path d="M280.817,653.19c-0,0 -63.438,99.259 -50.75,113.892c40.346,46.521 129.92,-58.109 129.92,-58.109l-79.17,-55.783Z" style="fill:#f4a28c;fill-rule:nonzero;"/><path d="M424.439,638.346c-37.244,-27.188 -87.842,-28.088 -126.029,-2.242c-16.621,11.292 -29.604,28.209 -23.556,52.653c13.744,57.39 57.728,95.199 59.208,145.695l104.08,-6.978l-0,-65.002c-0.049,-12.412 5.109,-24.294 14.21,-32.734c9.05,-8.458 18.101,-22.034 11.926,-40.727c-5.625,-16.663 -19.835,-35.99 -39.839,-50.665Z" style="fill:#68e1fd;fill-rule:nonzero;"/><path d="M349.625,585.058c0,0 -2.96,-2.918 -4.736,0.762c-1.777,3.679 3.763,5.963 5.582,4.229c1.819,-1.734 -0.846,-4.991 -0.846,-4.991Z" style="fill:#f4a28c;fill-rule:nonzero;"/><path d="M372.928,665.413c-0,-0 -22.499,42.968 3.595,84.879c26.094,41.911 -23.345,82.849 -23.345,82.849l84.837,-5.667l-0,-37.047l-65.087,-125.014Z" style="fill-opacity:0.08;fill-rule:nonzero;"/><path d="M329.579,639.657c1.988,-7.782 11.25,-21.907 -1.776,-47.367c-3.933,-8.504 -3.84,-18.342 0.253,-26.77c12.392,-20.893 32.354,-13.745 29.985,-2.03c-2.368,11.714 -4.229,17.297 -4.229,17.297c0,-0 37.809,27.109 32.269,47.071c-4.695,17.762 -64.918,44.194 -56.502,11.799Z" style="fill:#24285b;fill-rule:nonzero;"/><path d="M329.368,807.893l108.647,0l17.297,150.347l-161.173,-7.274l35.228,-143.073Z" style="fill:#24285b;fill-rule:nonzero;"/><path d="M364.808,691.803c-1.743,-3.912 -2.643,-8.146 -2.643,-12.428c-0,-12.173 7.279,-23.232 18.46,-28.046c7.375,-3.041 14.966,-5.529 22.711,-7.443c46.267,-11.842 126.621,-44.026 173.818,-106.025c0,-0 13.618,-23.726 32.776,-17.424c19.159,6.301 5.837,28.589 -13.448,23.006c-0,0 -57.644,146.922 -189.425,171.112c-17.598,3.064 -35.151,-6.379 -42.291,-22.752l0.042,-0Z" style="fill:#f4a28c;fill-rule:nonzero;"/><path d="M825.576,148.016l52.61,21.062l-0.634,38.823l-45.844,-37.301l-6.132,-22.584Z" style="fill:#f4a28c;fill-rule:nonzero;"/><path d="M838.644,176.732c1.149,-3.834 1.149,-7.923 -0,-11.757c6.363,5.181 10.523,12.593 11.63,20.723l-11.63,-8.966Z" style="fill:#ce8172;fill-opacity:0.31;fill-rule:nonzero;"/><path d="M808.701,167.301c6.955,6.662 14.78,12.353 23.261,16.917c1.163,0.573 2.443,0.872 3.74,0.872c3.367,-0 6.426,-2.011 7.763,-5.101c3.516,-6.658 2.785,-14.798 -1.861,-20.723l-8.458,-13.491c-4.065,-5.167 -11.005,-7.197 -17.213,-5.033c-11.715,3.003 -15.225,19.623 -7.232,26.559Z" style="fill:#f4a28c;fill-rule:nonzero;"/><path d="M816.948,174.406l2.199,7.909c0.334,1.206 1.439,2.047 2.691,2.047c0.655,0 1.29,-0.231 1.792,-0.652l5.075,-4.229l-11.757,-5.075Z" style="fill:#f4a28c;fill-rule:nonzero;"/><path d="M847.863,155.586l-16.071,-17.128c0,0 5.075,-12.307 -4.229,-13.533c-9.304,-1.226 -7.316,6.259 -15.732,1.226c-8.416,-5.032 -14.379,0.635 -12.688,8.459c1.692,7.824 -3.468,1.395 -8.077,6.809c-4.61,5.413 -3.003,8.712 1.48,11.715c4.483,3.002 -5.794,8.458 -1.438,14.379c4.356,5.921 9.727,9.685 20.004,-4.652c10.277,-14.337 15.732,3.933 36.751,-7.275Z" style="fill:#ffd200;fill-rule:nonzero;"/><path d="M831.75,162.184c0,-0 -5.117,-4.229 -1.607,-7.824c3.51,-3.595 10.954,2.538 7.401,8.458l-5.794,-0.634Z" style="fill:#f4a28c;fill-rule:nonzero;"/><path d="M1015.72,325.853c-0,-0 -22.288,57.855 3.003,86.909c25.29,29.054 81.792,57.136 81.792,57.136c-0,0 7.232,33.833 25.121,3.087l-3.468,-16.662l-52.907,-40.262l-33.833,-42.757l21.822,-46.521l-41.53,-0.93Z" style="fill-opacity:0.08;fill-rule:nonzero;"/><path d="M1088.21,253.788l-30.915,39.585l-20.681,26.94c-12.02,1.808 -24.183,2.473 -36.329,1.987c-35.863,-1.269 -88.558,-12.687 -111.523,-63.945c-6.806,-15.939 -10.592,-33.005 -11.165,-50.327l0.592,-38.781c0,-0 57.94,-42.292 109.959,-7.021c52.019,35.272 100.062,91.562 100.062,91.562Z" style="fill:#68e1fd;fill-rule:nonzero;"/><path d="M1088.21,253.788c-0,-0 57.897,38.654 26.855,65.256c-15.784,14.064 -30.148,29.646 -42.884,46.521c-6.626,8.597 -5.881,20.896 1.734,28.631l43.053,43.857l-7.485,20.088l-63.438,-40.219c-20.491,-13.029 -29.508,-38.572 -21.738,-61.577l12.307,-36.032l51.596,-66.525Z" style="fill:#24285b;fill-rule:nonzero;"/><path d="M1057.29,293.373l-20.681,26.94c0,-0 -15.098,1.015 -36.328,1.987c-35.864,-1.269 -88.559,-12.687 -111.524,-63.945c18.609,-25.375 43.096,-49.312 54.599,-51.934c-0,0 21.569,60.858 53.795,70.965c31.465,9.897 58.955,15.86 60.266,16.156l-0.127,-0.169Z" style="fill-opacity:0.08;fill-rule:nonzero;"/><path d="M945.219,217.163c4.229,-35.609 -41.742,-53.541 -63.776,-25.375c-6.563,8.355 -11.473,17.887 -14.464,28.082c-11.249,38.062 -81.411,193.104 -81.411,193.104l23.81,11.63c-0,-0 89.193,-111.481 123.915,-172.846c6.226,-10.628 10.28,-22.388 11.926,-34.595Z" style="fill:#68e1fd;fill-rule:nonzero;"/><path d="M945.219,217.163c4.229,-35.609 -41.742,-53.541 -63.776,-25.375c-6.563,8.355 -11.473,17.887 -14.464,28.082c-11.249,38.062 -81.411,193.104 -81.411,193.104l23.81,11.63c-0,-0 89.193,-111.481 123.915,-172.846c6.226,-10.628 10.28,-22.388 11.926,-34.595Z" style="fill:#fff;fill-opacity:0.36;fill-rule:nonzero;"/><path d="M789.332,414.877c-0,-0 -26.263,14.802 -11.504,24.571c14.76,9.77 31.381,-14.844 31.381,-14.844l-19.877,-9.727Z" style="fill:#f4a28c;fill-rule:nonzero;"/><path d="M1111.26,453.151c-0,-0 12.222,12.687 7.908,20.892c0,-0 8.459,9.008 15.056,-2.834c6.598,-11.841 -4.906,-25.375 -4.906,-25.375l-13.66,-4.652l-4.398,11.969Z" style="fill:#68e1fd;fill-rule:nonzero;"/><path d="M1221.09,875.729c-8.458,21.935 -16.085,44.152 -22.88,66.652c-1.353,4.483 -7.147,32.141 -12.01,50.454l56.374,-0c3.767,-42.63 18.98,-83.462 44.026,-118.163c0.55,40.853 2.072,84.583 25.121,118.163l25.756,-0c5.278,-6.256 8.42,-14.037 8.966,-22.204c0.29,-11.197 -1.034,-22.379 -3.933,-33.198c-6.98,-33.659 -10.579,-67.93 -10.742,-102.304c-0,-43.264 5.032,-86.613 1.311,-129.751c-2.242,-25.586 -8.459,-52.822 -28.04,-69.697c-0.819,-0.732 -1.696,-1.397 -2.622,-1.987c1.946,-15.225 2.918,-30.619 3.806,-45.887l2.707,-44.491c0.93,-15.098 -7.57,-39.669 -24.994,-22.71c-14.21,13.787 -9.262,29.604 -12.688,46.055c-5.413,25.714 -37.259,22.373 -57.347,21.485c-63.438,-2.834 -127.552,-1.227 -191.243,-1.227l-149.67,0l-0,276.884l353.008,-0c-1.692,3.975 -3.383,7.951 -4.906,11.926Z" style="fill-opacity:0.08;fill-rule:nonzero;"/><path d="M1206.33,1050.14c-0,-0 -9.347,9.219 -19.455,4.863c-10.107,-4.356 -17.466,4.23 -10.023,11.546c7.444,7.316 35.61,7.57 35.61,7.57l8.247,-19.073l-14.38,-4.906Z" style="fill:#68e1fd;fill-rule:nonzero;"/><path d="M1363.27,1045.87c-0,0 4.567,12.688 -3.045,20.808c-7.613,8.12 -2.876,18.608 6.344,14.125c9.219,-4.483 20.088,-31.888 20.088,-31.888l-13.66,-15.225l-9.727,12.18Z" style="fill:#68e1fd;fill-rule:nonzero;"/><path d="M1388.27,809.754c0,-0 9.854,41.023 -7.274,61.196c-17.128,20.173 -43.349,115.752 0,163.542l-17.128,16.917c-0,-0 -75.068,-40.347 -53.668,-185.83l-53.626,-55.867l131.696,0.042Z" style="fill:#24285b;fill-rule:nonzero;"/><path d="M1256.57,809.754l-54.979,241.697l27.532,4.229c-0,0 54.979,-165.656 91.392,-199.659l-63.945,-46.267Z" style="fill:#24285b;fill-rule:nonzero;"/><path d="M1243.8,597.238c-0,0 -57.432,24.487 -48.635,114.188l56.078,-4.779l-7.443,-109.409Z" style="fill:#68e1fd;fill-rule:nonzero;"/><path d="M1243.8,597.238c-0,0 -57.432,24.487 -48.635,114.188l56.078,-4.779l-7.443,-109.409Z" style="fill:#fff;fill-opacity:0.36;fill-rule:nonzero;"/><path d="M1324.45,530.079l-2.199,58.278l-32.015,-3.51l14.422,-40.981l19.792,-13.787Z" style="fill:#f4a28c;fill-rule:nonzero;"/><path d="M1301.14,552.917c4.139,-0.26 8.11,-1.731 11.419,-4.23c-2.833,7.955 -8.578,14.547 -16.071,18.44l4.652,-14.21Z" style="fill:#ce8172;fill-opacity:0.31;fill-rule:nonzero;"/><path d="M1319.5,576.558l-18.693,3.891c0,-0 -85.598,9.219 -89.066,57.516c-3.468,48.297 44.871,171.789 44.871,171.789l129.709,-0c-0,-0 103.826,-245.968 -66.821,-233.196Z" style="fill:#68e1fd;fill-rule:nonzero;"/><path d="M1292.86,521.536c-2.209,9.704 -3.092,19.663 -2.622,29.604c0.55,4.882 5.014,8.45 9.896,7.909c7.762,-0.44 14.572,-5.423 17.34,-12.688l7.401,-14.675c2.394,-6.323 0.542,-13.511 -4.61,-17.889c-8.966,-8.585 -25.544,-2.961 -27.405,7.739Z" style="fill:#f4a28c;fill-rule:nonzero;"/><path d="M1357.56,599.057c0,-0 -44.194,25.756 -33.833,84.076c10.362,58.32 27.405,78.366 -9.177,70.246c-36.582,-8.12 -51.638,-26.517 -51.638,-26.517c-0,0 -26.348,21.484 -0,37.767c26.347,16.282 62.084,16.282 67.666,45.125l55.656,-0c0,-0 4.483,-12.688 10.446,-28.547c5.963,-15.859 -39.12,-182.15 -39.12,-182.15Z" style="fill-opacity:0.09;fill-rule:nonzero;"/><path d="M1297.13,522.89c5.412,0.971 10.918,1.312 16.409,1.015c-3.879,4.438 -4.761,10.784 -2.242,16.113c2.369,5.25 8.186,8.104 13.787,6.766l2.876,-22.668c1.073,-6.575 -1.585,-13.229 -6.893,-17.255c-2.242,-1.733 -4.587,-3.329 -7.021,-4.779c-6.989,-3.896 -15.597,-3.585 -22.287,0.804c-5.076,4.325 -5.741,12.039 -1.481,17.17c1.951,1.605 4.337,2.592 6.852,2.834Z" style="fill:#24285b;fill-rule:nonzero;"/><path d="M1309.48,539.256c-0,0 1.099,-6.808 6.132,-5.54c5.033,1.269 3.51,10.996 -3.552,10.954l-2.58,-5.414Z" style="fill:#f4a28c;fill-rule:nonzero;"/><rect x="897.852" y="560.022" width="376.184" height="275.488" style="fill:#ffd200;"/><rect x="928.936" y="585.693" width="314.058" height="224.146" style="fill:#fff;fill-opacity:0.43;"/><path d="M932.531,809.839l85.472,-158.044l72.572,122.561l65.299,-76.59l87.078,112.073l-310.421,-0Z" style="fill:#fff;fill-opacity:0.49;fill-rule:nonzero;"/><circle cx="1096.41" cy="656.827" r="25.206" style="fill:#fff;"/><path d="M1426.16,702.122c-0,-0 7.316,74.898 -29.605,79.085c-27.743,3.13 -72.234,-12.687 -99.427,-20.258c-11.757,-3.383 -17.467,-4.948 -26.517,-13.195c-10.827,-9.896 -25.883,-16.916 -14.21,-26.347c20.765,-16.917 35.525,11.884 35.525,11.884c17.336,5.048 35.209,8.029 53.245,8.881c0.205,0.006 0.411,0.009 0.616,0.009c11.925,-0 21.738,-9.813 21.738,-21.738c-0,-1.903 -0.25,-3.797 -0.743,-5.634l-6.851,-25.798c-0,0 48.762,-45.675 66.229,13.111Z" style="fill:#f4a28c;fill-rule:nonzero;"/><path d="M1290.91,532.617l-5.836,6.09c-0.507,0.534 -0.789,1.242 -0.789,1.978c-0,1.221 0.777,2.315 1.93,2.716l6.556,2.199l-1.861,-12.983Z" style="fill:#f4a28c;fill-rule:nonzero;"/><path d="M1387.97,593.221c18.989,14.675 47.874,47.07 47.325,108.309l-78.578,5.032c-0,0 -22.711,-67.243 1.015,-107.505c3.665,-6.275 10.407,-10.146 17.675,-10.146c4.549,0 8.971,1.517 12.563,4.31Z" style="fill:#68e1fd;fill-rule:nonzero;"/><path d="M1387.97,593.221c18.989,14.675 47.874,47.07 47.325,108.309l-78.578,5.032c-0,0 -22.711,-67.243 1.015,-107.505c3.665,-6.275 10.407,-10.146 17.675,-10.146c4.549,0 8.971,1.517 12.563,4.31Z" style="fill:#fff;fill-opacity:0.36;fill-rule:nonzero;"/><rect x="614.963" y="291.183" width="118.417" height="18.735" style="fill:#c9c9c9;"/><rect x="614.963" y="272.363" width="89.574" height="18.735" style="fill:#e6e6e6;"/><path d="M625.029,274.299c-0,0 33.072,-9.05 40.303,-39.881c0,0 -51.299,-10.361 -52.779,42.588l12.476,-2.707Z" style="fill:#68e1fd;fill-opacity:0.58;fill-rule:nonzero;"/><path d="M620.969,271c-0,0 23.091,-36.582 2.749,-70.754c-0,0 -38.993,24.783 -21.654,70.839l18.905,-0.085Z" style="fill:#68e1fd;fill-opacity:0.73;fill-rule:nonzero;"/><path d="M615.005,271.043c0,-0 -12.222,-38.613 -49.185,-45.929c0,-0 -6.893,25.037 23.937,46.013l25.248,-0.084Z" style="fill:#68e1fd;fill-rule:nonzero;"/><path d="M638.985,270.155l-6.682,45.928l-42.292,0.17l-6.217,-45.887l55.191,-0.211Z" style="fill:#24285b;fill-rule:nonzero;"/></svg>