<?xml version="1.0" encoding="UTF-8" standalone="no"?><!DOCTYPE svg PUBLIC "-//W3C//DTD SVG 1.1//EN" "http://www.w3.org/Graphics/SVG/1.1/DTD/svg11.dtd"><svg width="100%" height="100%" viewBox="0 0 1692 1275" version="1.1" xmlns="http://www.w3.org/2000/svg" xmlns:xlink="http://www.w3.org/1999/xlink" xml:space="preserve" xmlns:serif="http://www.serif.com/" style="fill-rule:evenodd;clip-rule:evenodd;stroke-linejoin:round;stroke-miterlimit:2;"><ellipse cx="874.092" cy="1187.01" rx="685.146" ry="50.341" style="fill:#e6e6e6;fill-opacity:0.45;"/><path d="M909.049,112.117l-6.541,143.101c-19.064,35.775 -24.583,41.704 -31.38,42.981l-0,42.828c16.814,4.089 31.737,5.111 40.528,0c30.664,-18.398 51.823,-111.874 51.823,-111.874l-54.43,-117.036Z" style="fill:#68e1fd;fill-rule:nonzero;"/><path d="M1450.29,268.334l-1128.09,2.756l2.003,819.71l1128.09,-2.756l-2.003,-819.71Z" style="fill:#f2f2f2;"/><rect x="322.131" y="269.682" width="1128.5" height="161.397" style="fill:#e6e6e6;"/><circle cx="423.375" cy="352.936" r="20.443" style="fill:#24285b;"/><circle cx="484.193" cy="352.782" r="20.443" style="fill:#68e1fd;"/><circle cx="541.485" cy="352.629" r="20.443" style="fill:#ffd200;"/><rect x="837.857" y="819.955" width="483.63" height="30.102" style="fill:#e6e6e6;"/><rect x="837.857" y="899.683" width="483.63" height="30.102" style="fill:#e6e6e6;"/><rect x="837.857" y="979.41" width="336.031" height="30.102" style="fill:#e6e6e6;"/><rect x="837.857" y="488.166" width="471.108" height="282.113" style="fill:#e6e6e6;"/><rect x="424.193" y="485.61" width="359.439" height="101.397" style="fill:#666;fill-opacity:0.17;"/><rect x="424.193" y="629.222" width="359.439" height="101.397" style="fill:#e6e6e6;"/><circle cx="486.8" cy="680.381" r="36.491" style="fill:#666;fill-opacity:0.17;"/><rect x="550.786" y="657.689" width="144.992" height="16.048" style="fill:#666;fill-opacity:0.17;"/><rect x="550.786" y="689.785" width="90.869" height="16.048" style="fill:#666;fill-opacity:0.17;"/><rect x="424.193" y="772.885" width="359.439" height="101.397" style="fill:#e6e6e6;"/><circle cx="486.8" cy="824.044" r="36.491" style="fill:#666;fill-opacity:0.17;"/><rect x="550.786" y="801.301" width="144.992" height="16.048" style="fill:#666;fill-opacity:0.17;"/><rect x="550.786" y="833.448" width="90.869" height="16.048" style="fill:#666;fill-opacity:0.17;"/><rect x="424.193" y="916.497" width="359.439" height="101.397" style="fill:#e6e6e6;"/><circle cx="486.8" cy="967.656" r="36.491" style="fill:#666;fill-opacity:0.17;"/><rect x="550.786" y="944.964" width="144.992" height="16.048" style="fill:#666;fill-opacity:0.17;"/><rect x="550.786" y="977.059" width="90.869" height="16.048" style="fill:#666;fill-opacity:0.17;"/><path d="M443.818,1090.47c1.738,-0 -39.864,-225.946 -26.013,-257.019c13.85,-31.074 46.763,-61.329 45.996,-86.321c-0.766,-24.991 96.44,-98.791 117.547,-160.119l18.91,29.897l197.019,-166.405c0,-0 33.578,-4.804 44.515,-29.183c10.937,-24.378 113.305,-151.84 113.305,-151.84l-54.787,0l-61.84,80.75l-41.908,-17.734l-223.8,168.654l-12.828,49.574c0,0 -160.068,114.839 -212.913,175.503c-52.845,60.665 17.632,364.192 17.632,364.192l79.165,0.051Z" style="fill-opacity:0.08;fill-rule:nonzero;"/><path d="M788.42,294.711l-241.214,199.833l58.884,71.078l241.214,-199.834l-58.884,-71.077Z" style="fill:#24285b;"/><circle cx="618.401" cy="494.963" r="33.22" style="fill:#ffd200;"/><path d="M754.105,356.739l-101.617,84.185l9.325,11.256l101.617,-84.185l-9.325,-11.256Z" style="fill:#fff;fill-opacity:0.17;"/><path d="M734.807,410.674l-63.678,52.755l9.325,11.255l63.678,-52.754l-9.325,-11.256Z" style="fill:#fff;fill-opacity:0.17;"/><path d="M263.562,909.087l-33.373,106.559c-9.065,29.177 -29.922,53.279 -57.496,66.439l-49.063,23.305l1.993,14.515l73.288,-15.844c34.898,-10.266 63.876,-34.823 79.728,-67.564l51.772,-106.61l-66.849,-20.8Z" style="fill:#f4a28c;fill-rule:nonzero;"/><path d="M374.159,939.138l15.639,228.552l-14.566,5.06l-58.007,-213.783l56.934,-19.829Z" style="fill:#f4a28c;fill-rule:nonzero;"/><path d="M392.813,1171.62c0,0 3.373,13.544 13.595,17.786c10.221,4.242 5.11,18.961 -10.222,9.966c-4.772,-2.765 -9.303,-5.928 -13.543,-9.455c-3.986,-3.134 -8.729,-5.162 -13.748,-5.877c-1.906,-0.497 -3.362,-2.053 -3.731,-3.987c-2.044,-7.461 14.923,-14.514 14.923,-14.514l12.726,6.081Z" style="fill:#68e1fd;fill-rule:nonzero;"/><path d="M125.623,1119.75c0,0 -10.221,7.871 -10.221,18.195c-0,10.323 -14.31,11.601 -12.521,-5.111c0.541,-5.179 1.498,-10.307 2.862,-15.332c1.168,-4.607 1.08,-9.443 -0.256,-14.004c-0.391,-1.826 0.409,-3.713 1.993,-4.702c5.571,-4.599 18.143,7.155 18.143,7.155l0,13.799Z" style="fill:#68e1fd;fill-rule:nonzero;"/><path d="M286.663,607.91l5.468,21.977l-17.836,9.403l-3.118,-37.615l15.486,6.235Z" style="fill:#f4a28c;fill-rule:nonzero;"/><path d="M266.987,580.517c2.321,-4.365 6.878,-7.103 11.822,-7.103c4.125,0 8.027,1.907 10.563,5.161c6.592,8.279 14.31,21.209 3.935,27.087c-15.895,8.995 -28.16,-11.142 -28.16,-11.142c-0.795,-4.746 -0.154,-9.623 1.84,-14.003Z" style="fill:#f4a28c;fill-rule:nonzero;"/><path d="M193.801,676.854c-0,0 -76.661,119.95 -61.329,137.633c48.756,56.218 157.002,-70.222 157.002,-70.222l-95.673,-67.411Z" style="fill:#f4a28c;fill-rule:nonzero;"/><path d="M367.362,658.916c-45.008,-32.856 -106.153,-33.943 -152.301,-2.709c-20.085,13.646 -35.775,34.089 -28.466,63.629c16.61,69.353 69.761,115.043 71.55,176.065l125.775,-8.433l0,-78.552c-0.058,-15 6.174,-29.357 17.172,-39.557c10.937,-10.222 21.874,-26.627 14.413,-49.217c-6.798,-20.136 -23.97,-43.492 -48.143,-61.226Z" style="fill:#68e1fd;fill-rule:nonzero;"/><path d="M276.953,594.52c-0,0 -3.578,-3.526 -5.725,0.92c-2.146,4.447 4.549,7.206 6.747,5.111c2.197,-2.095 -1.022,-6.031 -1.022,-6.031Z" style="fill:#f4a28c;fill-rule:nonzero;"/><path d="M305.113,691.624c-0,0 -27.189,51.926 4.344,102.573c31.533,50.648 -28.211,100.12 -28.211,100.12l102.521,-6.849l0,-44.77l-78.654,-151.074Z" style="fill-opacity:0.08;fill-rule:nonzero;"/><path d="M252.728,660.5c2.402,-9.404 13.594,-26.474 -2.147,-57.24c-4.752,-10.278 -4.64,-22.166 0.307,-32.351c14.974,-25.247 39.097,-16.61 36.235,-2.453c-2.862,14.156 -5.111,20.902 -5.111,20.902c0,0 45.69,32.76 38.995,56.883c-5.673,21.465 -78.45,53.407 -68.279,14.259Z" style="fill:#24285b;fill-rule:nonzero;"/><path d="M252.472,863.805l131.295,0l20.903,181.687l-194.77,-8.79l42.572,-172.897Z" style="fill:#24285b;fill-rule:nonzero;"/><path d="M295.3,723.516c-2.106,-4.727 -3.194,-9.844 -3.194,-15.018c-0,-14.711 8.797,-28.075 22.308,-33.892c8.913,-3.676 18.086,-6.682 27.445,-8.995c55.912,-14.31 153.016,-53.203 210.052,-128.127c-0,0 16.456,-28.671 39.608,-21.056c23.151,7.615 7.053,34.549 -16.252,27.803c-0,-0 -69.66,177.547 -228.911,206.78c-21.266,3.703 -42.478,-7.709 -51.107,-27.495l0.051,-0Z" style="fill:#f4a28c;fill-rule:nonzero;"/><path d="M852.116,66.376l63.577,25.452l-0.766,46.916l-55.401,-45.076l-7.41,-27.292Z" style="fill:#f4a28c;fill-rule:nonzero;"/><path d="M867.908,101.078c1.389,-4.633 1.389,-9.574 -0,-14.208c7.689,6.261 12.716,15.218 14.054,25.043l-14.054,-10.835Z" style="fill:#ce8172;fill-opacity:0.31;fill-rule:nonzero;"/><path d="M831.724,89.681c8.405,8.051 17.86,14.928 28.109,20.443c1.406,0.693 2.952,1.054 4.519,1.054c4.069,-0 7.767,-2.43 9.382,-6.165c4.249,-8.045 3.366,-17.883 -2.249,-25.042l-10.221,-16.304c-4.912,-6.244 -13.299,-8.696 -20.801,-6.081c-14.157,3.628 -18.399,23.714 -8.739,32.095Z" style="fill:#f4a28c;fill-rule:nonzero;"/><path d="M841.69,98.267l2.657,9.557c0.403,1.458 1.739,2.474 3.251,2.474c0.792,0 1.56,-0.279 2.167,-0.787l6.133,-5.111l-14.208,-6.133Z" style="fill:#f4a28c;fill-rule:nonzero;"/><path d="M879.049,75.524l-19.421,-20.698c0,-0 6.133,-14.872 -5.11,-16.355c-11.244,-1.482 -8.842,7.564 -19.012,1.483c-10.171,-6.082 -17.377,0.766 -15.333,10.221c2.045,9.455 -4.19,1.687 -9.761,8.228c-5.571,6.542 -3.629,10.529 1.789,14.157c5.417,3.629 -7.002,10.222 -1.738,17.377c5.264,7.155 11.755,11.703 24.174,-5.622c12.419,-17.326 19.012,4.753 44.412,-8.791Z" style="fill:#ffd200;fill-rule:nonzero;"/><path d="M859.577,83.497c0,0 -6.184,-5.111 -1.942,-9.455c4.242,-4.344 13.237,3.067 8.944,10.222l-7.002,-0.767Z" style="fill:#f4a28c;fill-rule:nonzero;"/><path d="M1081.89,281.283c-0,-0 -26.934,69.915 3.628,105.026c30.562,35.11 98.842,69.046 98.842,69.046c0,-0 8.739,40.886 30.358,3.731l-4.191,-20.137l-63.935,-48.654l-40.886,-51.67l26.371,-56.218l-50.187,-1.124Z" style="fill-opacity:0.08;fill-rule:nonzero;"/><path d="M1169.49,194.196l-37.36,47.836l-24.991,32.556c-14.525,2.185 -29.225,2.99 -43.902,2.402c-43.339,-1.533 -107.019,-15.332 -134.77,-77.275c-8.225,-19.261 -12.8,-39.885 -13.492,-60.817l0.715,-46.866c0,0 70.017,-51.107 132.88,-8.484c62.862,42.624 120.92,110.648 120.92,110.648Z" style="fill:#68e1fd;fill-rule:nonzero;"/><path d="M1169.49,194.196c-0,-0 69.966,46.712 32.453,78.859c-19.074,16.996 -36.432,35.826 -51.823,56.218c-8.007,10.389 -7.107,25.252 2.095,34.6l52.028,52.998l-9.046,24.276l-76.661,-48.603c-24.763,-15.745 -35.66,-46.612 -26.27,-74.413l14.873,-43.543l62.351,-80.392Z" style="fill:#24285b;fill-rule:nonzero;"/><path d="M1132.13,242.032l-24.991,32.556c-0,-0 -18.246,1.226 -43.902,2.402c-43.339,-1.533 -107.019,-15.332 -134.77,-77.275c22.487,-30.664 52.079,-59.591 65.98,-62.76c-0,0 26.065,73.544 65.008,85.759c38.024,11.959 71.244,19.165 72.829,19.523l-0.154,-0.205Z" style="fill-opacity:0.08;fill-rule:nonzero;"/><path d="M996.699,149.937c5.11,-43.033 -50.444,-64.702 -77.07,-30.665c-7.932,10.097 -13.864,21.615 -17.479,33.936c-13.595,45.996 -98.382,233.356 -98.382,233.356l28.773,14.055c0,-0 107.786,-134.719 149.745,-208.876c7.524,-12.844 12.423,-27.055 14.413,-41.806Z" style="fill:#68e1fd;fill-rule:nonzero;"/><path d="M996.699,149.937c5.11,-43.033 -50.444,-64.702 -77.07,-30.665c-7.932,10.097 -13.864,21.615 -17.479,33.936c-13.595,45.996 -98.382,233.356 -98.382,233.356l28.773,14.055c0,-0 107.786,-134.719 149.745,-208.876c7.524,-12.844 12.423,-27.055 14.413,-41.806Z" style="fill:#fff;fill-opacity:0.36;fill-rule:nonzero;"/><path d="M808.317,388.864c-0,0 -31.738,17.888 -13.902,29.693c17.837,11.806 37.922,-17.938 37.922,-17.938l-24.02,-11.755Z" style="fill:#f4a28c;fill-rule:nonzero;"/><path d="M1197.35,435.116c0,0 14.77,15.332 9.557,25.247c0,0 10.222,10.886 18.195,-3.424c7.972,-14.31 -5.929,-30.664 -5.929,-30.664l-16.508,-5.622l-5.315,14.463Z" style="fill:#68e1fd;fill-rule:nonzero;"/><path d="M1330.07,945.782c-10.221,26.507 -19.438,53.356 -27.649,80.545c-1.635,5.417 -8.637,38.842 -14.514,60.971l68.126,0c4.551,-51.516 22.936,-100.859 53.203,-142.794c0.664,49.37 2.504,102.215 30.358,142.794l31.124,0c6.378,-7.559 10.175,-16.963 10.835,-26.831c0.351,-13.532 -1.25,-27.044 -4.753,-40.12c-8.435,-40.674 -12.783,-82.089 -12.982,-123.628c0,-52.283 6.082,-104.668 1.585,-156.798c-2.709,-30.92 -10.222,-63.833 -33.884,-84.225c-0.99,-0.885 -2.05,-1.688 -3.169,-2.402c2.351,-18.399 3.526,-37.002 4.6,-55.452l3.27,-53.765c1.125,-18.245 -9.148,-47.938 -30.204,-27.444c-17.172,16.661 -11.193,35.775 -15.332,55.656c-6.542,31.073 -45.026,27.035 -69.302,25.962c-76.661,-3.424 -154.14,-1.482 -231.108,-1.482l-180.869,0l0,334.6l426.594,0c-2.045,4.805 -4.089,9.609 -5.929,14.413Z" style="fill-opacity:0.08;fill-rule:nonzero;"/><path d="M1312.24,1156.55c-0,-0 -11.295,11.141 -23.51,5.877c-12.214,-5.264 -21.107,5.111 -12.112,13.952c8.995,8.842 43.032,9.149 43.032,9.149l9.966,-23.05l-17.376,-5.928Z" style="fill:#68e1fd;fill-rule:nonzero;"/><path d="M1501.89,1151.39c0,-0 5.52,15.332 -3.679,25.145c-9.2,9.812 -3.476,22.487 7.666,17.07c11.141,-5.418 24.276,-38.535 24.276,-38.535l-16.508,-18.399l-11.755,14.719Z" style="fill:#68e1fd;fill-rule:nonzero;"/><path d="M1532.1,866.054c-0,0 11.908,49.574 -8.79,73.953c-20.699,24.378 -52.386,139.881 -0,197.632l-20.699,20.443c-0,0 -90.716,-48.756 -64.855,-224.566l-64.805,-67.513l159.149,0.051Z" style="fill:#24285b;fill-rule:nonzero;"/><path d="M1372.95,866.054l-66.439,292.079l33.271,5.111c-0,-0 66.439,-200.188 110.443,-241.278l-77.275,-55.912Z" style="fill:#24285b;fill-rule:nonzero;"/><path d="M1357.52,609.239c-0,0 -69.404,29.591 -58.774,137.99l67.769,-5.775l-8.995,-132.215Z" style="fill:#68e1fd;fill-rule:nonzero;"/><path d="M1357.52,609.239c-0,0 -69.404,29.591 -58.774,137.99l67.769,-5.775l-8.995,-132.215Z" style="fill:#fff;fill-opacity:0.36;fill-rule:nonzero;"/><path d="M1454.98,528.081l-2.658,70.426l-38.688,-4.242l17.428,-49.523l23.918,-16.661Z" style="fill:#f4a28c;fill-rule:nonzero;"/><path d="M1426.82,555.679c5,-0.314 9.8,-2.092 13.799,-5.111c-3.424,9.612 -10.367,17.579 -19.421,22.283l5.622,-17.172Z" style="fill:#ce8172;fill-opacity:0.31;fill-rule:nonzero;"/><path d="M1449,584.248l-22.589,4.702c-0,-0 -103.442,11.141 -107.632,69.506c-4.191,58.364 54.225,207.598 54.225,207.598l156.746,0c0,0 125.469,-297.241 -80.75,-281.806Z" style="fill:#68e1fd;fill-rule:nonzero;"/><path d="M1416.8,517.757c-2.671,11.727 -3.737,23.762 -3.169,35.775c0.664,5.899 6.059,10.211 11.959,9.557c9.38,-0.531 17.61,-6.553 20.954,-15.332l8.944,-17.734c2.893,-7.641 0.655,-16.328 -5.571,-21.619c-10.835,-10.374 -30.869,-3.577 -33.117,9.353Z" style="fill:#f4a28c;fill-rule:nonzero;"/><path d="M1495,611.437c-0,-0 -53.407,31.124 -40.886,101.601c12.521,70.478 33.118,94.703 -11.09,84.89c-44.208,-9.813 -62.402,-32.044 -62.402,-32.044c-0,-0 -31.84,25.962 -0,45.639c31.839,19.676 75.025,19.676 81.771,54.531l67.258,0c-0,0 5.417,-15.332 12.623,-34.497c7.207,-19.166 -47.274,-220.12 -47.274,-220.12Z" style="fill-opacity:0.09;fill-rule:nonzero;"/><path d="M1421.96,519.392c6.541,1.175 13.195,1.586 19.83,1.227c-4.687,5.364 -5.754,13.033 -2.709,19.472c2.863,6.344 9.892,9.794 16.661,8.177l3.476,-27.393c1.296,-7.946 -1.917,-15.987 -8.331,-20.852c-2.709,-2.094 -5.542,-4.023 -8.484,-5.775c-8.446,-4.708 -18.848,-4.333 -26.933,0.971c-6.134,5.227 -6.938,14.549 -1.789,20.749c2.357,1.94 5.241,3.133 8.279,3.424Z" style="fill:#24285b;fill-rule:nonzero;"/><path d="M1436.89,539.171c-0,-0 1.329,-8.228 7.41,-6.695c6.082,1.533 4.242,13.288 -4.293,13.237l-3.117,-6.542Z" style="fill:#f4a28c;fill-rule:nonzero;"/><rect x="939.458" y="564.265" width="454.601" height="332.914" style="fill:#ffd200;"/><rect x="977.022" y="595.287" width="379.524" height="270.869" style="fill:#fff;fill-opacity:0.43;"/><path d="M981.366,866.156l103.288,-190.988l87.701,148.109l78.91,-92.555l105.23,135.434l-375.129,0Z" style="fill:#fff;fill-opacity:0.49;fill-rule:nonzero;"/><circle cx="1179.41" cy="681.25" r="30.46" style="fill:#fff;"/><path d="M1577.89,735.986c0,-0 8.842,90.511 -35.775,95.571c-33.526,3.782 -87.291,-15.333 -120.154,-24.481c-14.207,-4.088 -21.107,-5.979 -32.044,-15.945c-13.083,-11.959 -31.278,-20.443 -17.172,-31.84c25.094,-20.443 42.93,14.361 42.93,14.361c20.95,6.1 42.549,9.703 64.345,10.732c0.247,0.007 0.496,0.011 0.744,0.011c14.411,0 26.269,-11.858 26.269,-26.269c-0,-2.299 -0.302,-4.588 -0.898,-6.808l-8.279,-31.176c0,0 58.927,-55.196 80.034,15.844Z" style="fill:#f4a28c;fill-rule:nonzero;"/><path d="M1414.45,531.147l-7.053,7.36c-0.612,0.645 -0.953,1.501 -0.953,2.39c-0,1.476 0.939,2.798 2.333,3.283l7.921,2.657l-2.248,-15.69Z" style="fill:#f4a28c;fill-rule:nonzero;"/><path d="M1531.74,604.384c22.947,17.734 57.854,56.883 57.189,130.886l-94.957,6.082c-0,0 -27.445,-81.261 1.226,-129.915c4.43,-7.583 12.578,-12.26 21.36,-12.26c5.498,-0 10.842,1.833 15.182,5.207Z" style="fill:#68e1fd;fill-rule:nonzero;"/><path d="M1531.74,604.384c22.947,17.734 57.854,56.883 57.189,130.886l-94.957,6.082c-0,0 -27.445,-81.261 1.226,-129.915c4.43,-7.583 12.578,-12.26 21.36,-12.26c5.498,-0 10.842,1.833 15.182,5.207Z" style="fill:#fff;fill-opacity:0.36;fill-rule:nonzero;"/><rect x="597.601" y="239.386" width="143.101" height="22.641" style="fill:#c9c9c9;"/><rect x="597.601" y="216.643" width="108.246" height="22.641" style="fill:#e6e6e6;"/><path d="M609.764,218.983c0,-0 39.966,-10.937 48.706,-48.194c-0,-0 -61.994,-12.522 -63.783,51.465l15.077,-3.271Z" style="fill:#68e1fd;fill-opacity:0.58;fill-rule:nonzero;"/><path d="M604.858,214.997c-0,-0 27.904,-44.208 3.322,-85.503c-0,-0 -47.121,29.949 -26.167,85.605l22.845,-0.102Z" style="fill:#68e1fd;fill-opacity:0.73;fill-rule:nonzero;"/><path d="M597.652,215.048c-0,-0 -14.77,-46.661 -59.438,-55.503c-0,-0 -8.331,30.256 28.927,55.605l30.511,-0.102Z" style="fill:#68e1fd;fill-rule:nonzero;"/><path d="M626.63,213.974l-8.075,55.503l-51.108,0.205l-7.513,-55.452l66.696,-0.256Z" style="fill:#24285b;fill-rule:nonzero;"/></svg>